<?xml version="1.0" encoding="utf-8"?>
<!-- Generator: Adobe Illustrator 19.0.0, SVG Export Plug-In . SVG Version: 6.00 Build 0)  -->
<svg version="1.1" id="Layer_1" xmlns="http://www.w3.org/2000/svg" xmlns:xlink="http://www.w3.org/1999/xlink" x="0px" y="0px"
	 viewBox="-272 395.9 50 50" style="enable-background:new -272 395.9 50 50;" xml:space="preserve">
<g>
	<path d="M-246,405.9v-9h-1v1c6.4,0,12.1,2.6,16.3,6.7c4.2,4.2,6.7,9.9,6.7,16.3c0,6.4-2.6,12.1-6.7,16.3c-4.2,4.2-9.9,6.7-16.3,6.7
		c-6.4,0-12.1-2.6-16.3-6.7c-4.2-4.2-6.7-9.9-6.7-16.3c0-6.4,2.6-12.1,6.7-16.3c0.4-0.4,0.4-1,0-1.4c-0.4-0.4-1-0.4-1.4,0
		c-4.5,4.5-7.3,10.8-7.3,17.7c0,13.8,11.2,25,25,25l0,0c13.8,0,25-11.2,25-25c0-13.8-11.2-25-25-25h-1v10c0,0.6,0.4,1,1,1
		C-246.4,406.9-246,406.4-246,405.9L-246,405.9z"/>
</g>
<path d="M-244.9,423c-1.2,1.2-3.1,1.2-4.2,0s-10.4-14.7-10.4-14.7s13.5,9.2,14.7,10.4S-243.7,421.8-244.9,423z"/>
</svg>
