<?xml version="1.0" encoding="utf-8"?>
<!-- Generator: Adobe Illustrator 19.0.0, SVG Export Plug-In . SVG Version: 6.00 Build 0)  -->
<svg version="1.1" id="Layer_1" xmlns="http://www.w3.org/2000/svg" xmlns:xlink="http://www.w3.org/1999/xlink" x="0px" y="0px"
	 viewBox="-272 395.9 50 50" style="enable-background:new -272 395.9 50 50;" xml:space="preserve">
<g>
	<path d="M-247,396.9v1c6.4,0,12.1,2.6,16.3,6.7c4.2,4.2,6.7,9.9,6.7,16.3c0,6.4-2.6,12.1-6.7,16.3c-4.2,4.2-9.9,6.7-16.3,6.7
		c-6.4,0-12.1-2.6-16.3-6.7c-4.2-4.2-6.7-9.9-6.7-16.3c0-6.4,2.6-12.1,6.7-16.3c4.2-4.2,9.9-6.7,16.3-6.7V396.9v-1
		c-13.8,0-25,11.2-25,25l0,0c0,13.8,11.2,25,25,25l0,0c13.8,0,25-11.2,25-25c0-13.8-11.2-25-25-25V396.9z"/>
	<path d="M-242.1,431.4l1-0.1c-0.1-0.9-0.1-1.6-0.1-2.3c0-0.6,0-1.1,0-1.8h-1l0.5,0.9c0.2-0.1,0.4-0.3,0.5-0.4
		c0.3-0.3,0.5-0.6,0.7-1c0.7-1.1,1.3-2.7,1.5-4.3l-1-0.1l0.1,1c0.6,0,1.2-0.4,1.7-1c0.5-0.6,0.8-1.5,1-2.7l0,0c0-0.2,0-0.3,0-0.5
		c0-0.6-0.2-1.2-0.4-1.6c-0.2-0.4-0.5-0.7-0.9-0.9l-0.5,0.9l0.9,0.3c0.4-1.3,1.1-3.8,1.1-6.3c0-1.6-0.3-3.3-1.1-4.7
		c-0.4-0.7-1-1.3-1.7-1.8c-0.7-0.5-1.6-0.8-2.7-1l-0.1,1l0.9-0.5c-0.5-0.8-1.3-1.4-2.2-1.8c-0.9-0.3-2-0.5-3.2-0.5h0l0,0
		c-1.7,0-3.2,0.3-4.4,0.8c-1.9,0.7-3.3,1.9-4.1,3.5c-0.9,1.5-1.2,3.3-1.2,5.3c0,1.9,0.3,3.9,0.9,5.9l1-0.3l-0.5-0.9
		c-0.3,0.2-0.6,0.5-0.9,0.9c-0.2,0.4-0.4,1-0.4,1.6c0,0.2,0,0.3,0,0.5l0,0c0.1,1.2,0.5,2.1,1,2.7c0.5,0.6,1.1,0.9,1.7,1l0.1-1
		l-1,0.1c0.1,1.2,0.6,2.4,1.1,3.4c0.3,0.5,0.5,1,0.8,1.3c0.1,0.2,0.3,0.4,0.4,0.5c0.2,0.2,0.3,0.3,0.5,0.4l0.5-0.9h-1
		c0,0.6,0,1.2,0,1.8c0,0.7,0,1.5-0.1,2.3l1,0.1l-0.9-0.3c-0.2,0.6-0.7,1.1-1.4,1.6c-1.1,0.7-2.8,1.3-4.6,2c-1.8,0.7-3.7,1.5-5.2,2.9
		l-0.8,0.7l0.8,0.8c4.1,4.1,10.7,7,17.6,7c3.6,0,7.3-1.4,10.4-2.9c1.5-0.8,2.9-1.6,3.9-2.3c0.5-0.4,1-0.7,1.4-1
		c0.4-0.3,0.7-0.6,0.9-0.8l0.7-0.7l-0.8-0.7c-2.1-1.8-4.7-2.7-6.9-3.6c-1.1-0.4-2.1-0.9-2.8-1.4c-0.7-0.5-1.2-1-1.4-1.6
		L-242.1,431.4l1-0.1L-242.1,431.4l-0.9,0.3c0.4,1.1,1.2,1.9,2.2,2.5c1.4,0.9,3.2,1.5,4.9,2.2c1.7,0.7,3.4,1.5,4.6,2.6l0.7-0.7
		l-0.7-0.7c-0.1,0.1-0.3,0.3-0.7,0.6c-1.2,0.9-3.4,2.4-6.1,3.6c-2.6,1.2-5.7,2.2-8.4,2.2c-6.4,0-12.5-2.7-16.2-6.5l-0.7,0.7l0.7,0.8
		c1.7-1.5,4.1-2.3,6.4-3.2c1.1-0.5,2.2-0.9,3.2-1.5c0.9-0.6,1.8-1.4,2.2-2.5l0-0.1l0-0.1c0.1-1,0.1-1.8,0.1-2.5c0-0.6,0-1.2,0-1.8
		v-0.6l-0.5-0.3l-0.1,0.2l0.1-0.2l0,0l-0.1,0.2l0.1-0.2l0,0c-0.1-0.1-0.3-0.3-0.4-0.6c-0.6-0.8-1.2-2.4-1.3-3.5l-0.1-0.8l-0.8-0.1
		c0,0-0.1,0-0.3-0.2c-0.2-0.2-0.4-0.7-0.6-1.7l0,0l0-0.2c0-0.3,0.1-0.5,0.2-0.6l0.1-0.2l0,0l0,0l0,0l0,0l0,0l0,0l0,0l0.6-0.4
		l-0.2-0.7c-0.5-1.9-0.8-3.8-0.8-5.4c0-1.1,0.1-2.2,0.4-3c0.4-1.3,1.1-2.4,2.3-3.1c1.2-0.8,2.8-1.3,5.1-1.3l0-1v1
		c1,0,1.9,0.1,2.5,0.4c0.6,0.2,1,0.6,1.2,0.9l0.2,0.4l0.5,0.1c0.8,0.1,1.4,0.3,1.8,0.6c0.7,0.5,1.2,1.1,1.5,1.9
		c0.3,0.8,0.4,1.8,0.4,2.9c0,2.2-0.6,4.5-1,5.6l-0.3,0.8l0.7,0.4l0,0l0,0l0,0l0,0l0,0c0,0,0.1,0.1,0.2,0.2c0.1,0.1,0.1,0.3,0.1,0.6
		l0,0.2l0,0c-0.1,1-0.4,1.5-0.6,1.7c-0.2,0.2-0.3,0.2-0.3,0.2l-0.8,0.1l-0.1,0.8c-0.1,0.9-0.4,1.9-0.8,2.7c-0.2,0.4-0.4,0.8-0.6,1
		c-0.1,0.1-0.2,0.2-0.2,0.3l-0.1,0.1l0,0l0.1,0.2l-0.1-0.2l0,0l0.1,0.2l-0.1-0.2l-0.5,0.3v0.6c0,0.6,0,1.2,0,1.8
		c0,0.8,0,1.6,0.1,2.5l0,0.1l0,0.1L-242.1,431.4z"/>
</g>
</svg>
