<?xml version="1.0" encoding="utf-8"?>
<!-- Generator: Adobe Illustrator 19.0.0, SVG Export Plug-In . SVG Version: 6.00 Build 0)  -->
<svg version="1.1" id="Layer_1" xmlns="http://www.w3.org/2000/svg" xmlns:xlink="http://www.w3.org/1999/xlink" x="0px" y="0px"
	 viewBox="-272 395.9 50 50" style="enable-background:new -272 395.9 50 50;" xml:space="preserve">
<g>
	<path d="M-228,415.9h1c0-1.7-1.3-3-3-3c-1.7,0-3,1.3-3,3c0,0.5,0,14.5,0,15c0,1.7,1.3,3,3,3c1.7,0,3-1.3,3-3c0-0.5,0-14.5,0-15
		L-228,415.9h-1c0,0.5,0,14.5,0,15c0,0.6-0.4,1-1,1c-0.6,0-1-0.4-1-1c0-0.5,0-14.5,0-15c0-0.6,0.4-1,1-1c0.6,0,1,0.4,1,1H-228z"/>
	<path d="M-244,442.9v1c1.7,0,3-1.3,3-3c0-1.7-1.3-3-3-3c-0.5,0-4.5,0-5,0c-1.7,0-3,1.3-3,3c0,1.7,1.3,3,3,3c0.5,0,4.5,0,5,0V442.9
		v-1c-0.5,0-4.5,0-5,0c-0.6,0-1-0.4-1-1c0-0.6,0.4-1,1-1c0.5,0,4.5,0,5,0c0.6,0,1,0.4,1,1c0,0.6-0.4,1-1,1V442.9z"/>
	<path d="M-263,414.9c0-4.4,1.8-8.4,4.7-11.3c2.9-2.9,6.9-4.7,11.3-4.7c4.4,0,8.4,1.8,11.3,4.7c2.9,2.9,4.7,6.9,4.7,11.3h2
		c0-9.9-8.1-18-18-18c-9.9,0-18,8.1-18,18H-263L-263,414.9z"/>
	<path d="M-228,416.9c0.5,0,0.9,0.1,1.4,0.4c0.7,0.4,1.3,1.2,1.8,2.3c0.5,1.1,0.8,2.4,0.8,3.8c0,1.9-0.5,3.6-1.3,4.7
		c-0.4,0.6-0.8,1-1.3,1.3c-0.5,0.3-0.9,0.4-1.4,0.4v2c0.9,0,1.7-0.3,2.5-0.7c1.1-0.7,2-1.8,2.6-3.2c0.6-1.3,0.9-2.9,0.9-4.6
		c0-2.3-0.6-4.3-1.6-5.9c-0.5-0.8-1.1-1.4-1.9-1.9c-0.7-0.5-1.6-0.7-2.5-0.7V416.9L-228,416.9z"/>
	<path d="M-266,415.9h1c0-0.6,0.4-1,1-1c0.6,0,1,0.4,1,1c0,0.5,0,14.5,0,15c0,0.6-0.4,1-1,1c-0.6,0-1-0.4-1-1c0-0.5,0-14.5,0-15
		L-266,415.9h-1c0,0.5,0,14.5,0,15c0,1.7,1.3,3,3,3c1.7,0,3-1.3,3-3c0-0.5,0-14.5,0-15c0-1.7-1.3-3-3-3c-1.7,0-3,1.3-3,3H-266z"/>
	<path d="M-266,414.9c-0.9,0-1.7,0.3-2.5,0.7c-1.1,0.7-2,1.8-2.6,3.2c-0.6,1.3-0.9,2.9-0.9,4.6c0,2.3,0.6,4.3,1.6,5.9
		c0.5,0.8,1.1,1.4,1.9,1.9c0.7,0.5,1.6,0.7,2.5,0.7v-2c-0.5,0-0.9-0.1-1.4-0.4c-0.7-0.4-1.3-1.2-1.8-2.3c-0.5-1.1-0.8-2.4-0.8-3.8
		c0-1.9,0.5-3.6,1.3-4.7c0.4-0.6,0.8-1,1.3-1.3c0.5-0.3,0.9-0.4,1.4-0.4V414.9L-266,414.9z"/>
	<path d="M-231,432.9c0,2.3-0.7,4-1.8,5.2c-1.2,1.2-2.9,1.8-5.2,1.8h-4v2h4c2.7,0,5-0.8,6.6-2.4c1.6-1.6,2.4-3.9,2.4-6.6H-231
		L-231,432.9z"/>
</g>
</svg>
