<?xml version="1.0" encoding="utf-8"?>
<!-- Generator: Adobe Illustrator 19.0.0, SVG Export Plug-In . SVG Version: 6.00 Build 0)  -->
<svg version="1.1" id="Layer_1" xmlns="http://www.w3.org/2000/svg" xmlns:xlink="http://www.w3.org/1999/xlink" x="0px" y="0px"
	 viewBox="-272 395.9 50 50" style="enable-background:new -272 395.9 50 50;" xml:space="preserve">
<g>
	<path d="M-247,396.9v1c6.4,0,12.1,2.6,16.3,6.7c4.2,4.2,6.7,9.9,6.7,16.3c0,6.4-2.6,12.1-6.7,16.3c-4.2,4.2-9.9,6.7-16.3,6.7
		c-6.4,0-12.1-2.6-16.3-6.7c-4.2-4.2-6.7-9.9-6.7-16.3c0-6.4,2.6-12.1,6.7-16.3c4.2-4.2,9.9-6.7,16.3-6.7V396.9v-1
		c-13.8,0-25,11.2-25,25l0,0c0,13.8,11.2,25,25,25l0,0c13.8,0,25-11.2,25-25c0-13.8-11.2-25-25-25V396.9z"/>
	<circle cx="-247" cy="420.9" r="3"/>
	<path d="M-254.3,429.6l8.3-8.3v-19.4c0-0.6-0.4-1-1-1s-1,0.4-1,1v18.6l-7.7,7.7c-0.4,0.4-0.4,1,0,1.4S-254.7,430-254.3,429.6
		L-254.3,429.6z"/>
</g>
</svg>
