<?xml version="1.0" encoding="utf-8"?>
<!-- Generator: Adobe Illustrator 18.1.1, SVG Export Plug-In . SVG Version: 6.00 Build 0)  -->
<svg version="1.1" id="_x3C_Layer_x3E_" xmlns="http://www.w3.org/2000/svg" xmlns:xlink="http://www.w3.org/1999/xlink" x="0px"
	 y="0px" viewBox="0 0 205.1 42.4" enable-background="new 0 0 205.1 42.4" xml:space="preserve">
<path fill="#FFFFFF" d="M49.9,17.7h4.8v-5.8h2.4c4.9,0,6.3-3.5,6.3-5.9c0-2.4-1.4-5.9-6.3-5.9h-7.2V17.7L49.9,17.7z M54.8,3.9h1.4
	c2.1,0,2.4,1.1,2.4,2c0,0.8-0.2,2-2.4,2h-1.4V3.9L54.8,3.9z M74.2,7C73.2,5.6,72,5,70.4,5c-3.9,0-5.5,3.5-5.5,6.5
	c0,4.1,2.5,6.6,5.5,6.6c1.7,0,3-0.8,3.9-1.9v1.4h4.1V5.5h-4.1V7L74.2,7z M71.8,14.5c-1.8,0-2.5-1.5-2.5-2.9c0-1.4,0.8-2.9,2.5-2.9
	c1.5,0,2.6,1.1,2.6,2.9C74.4,13.4,73.4,14.5,71.8,14.5L71.8,14.5z M81,5.5v12.2h4.2l4.2-6.7v6.7h4.3V5.5h-4.1L85.3,12V5.5H81L81,5.5
	z M87.7,3.9c1.9,0,3.9-0.8,4.8-2.8L89.8,0c-0.3,1.4-1.5,1.5-2,1.5c-0.5,0-1.7-0.1-2-1.5l-2.8,1.1C83.8,3.1,85.8,3.9,87.7,3.9
	L87.7,3.9z M102.5,23h4.3v-5.1c2.5,0,6.8-1,6.8-6.3c0-5.3-4.2-6.3-6.8-6.3V0h-4.3v5.3c-2.6,0-6.8,1-6.8,6.3c0,5.3,4.2,6.3,6.8,6.3
	V23L102.5,23z M106.6,8.3c1.4,0,2.9,1.1,2.9,3.4c0,2.3-1.5,3.4-2.9,3.4V8.3L106.6,8.3z M102.8,15.1c-1.4,0-2.9-1.1-2.9-3.4
	c0-2.3,1.5-3.4,2.9-3.4V15.1L102.8,15.1z M121.8,23h4.3v-5.1c2.6,0,6.8-1,6.8-6.3c0-5.3-4.2-6.3-6.8-6.3V0h-4.3v5.3
	c-2.6,0-6.8,1-6.8,6.3c0,5.3,4.2,6.3,6.8,6.3V23L121.8,23z M125.8,8.3c1.4,0,2.9,1.1,2.9,3.4c0,2.3-1.5,3.4-2.9,3.4V8.3L125.8,8.3z
	 M122.1,15.1c-1.4,0-2.9-1.1-2.9-3.4c0-2.3,1.5-3.4,2.9-3.4V15.1L122.1,15.1z M143.7,7c-1.1-1.4-2.2-1.9-3.9-1.9
	c-3.9,0-5.5,3.5-5.5,6.5c0,4.1,2.5,6.6,5.5,6.6c1.7,0,3-0.8,3.9-1.9v1.4h4.1V5.5h-4.1V7L143.7,7z M141.3,14.5
	c-1.8,0-2.6-1.5-2.6-2.9c0-1.4,0.8-2.9,2.6-2.9c1.5,0,2.6,1.1,2.6,2.9C143.9,13.4,142.9,14.5,141.3,14.5L141.3,14.5z M150.5,5.5
	v12.2h4.2l4.2-6.7v6.7h4.3V5.5h-4.1l-4.3,6.5V5.5H150.5L150.5,5.5z M157.2,3.9c1.9,0,3.9-0.8,4.8-2.8L159.3,0
	c-0.3,1.4-1.5,1.5-2,1.5c-0.5,0-1.7-0.1-2-1.5l-2.8,1.1C153.3,3.1,155.3,3.9,157.2,3.9L157.2,3.9z M166.6,9c0.9-0.6,2.1-1,3.2-1
	c0.5,0,1.7,0.1,1.7,1.1c0,1-1,1-1.4,1H168v2.7h1.9c0.6,0,1.8,0.1,1.8,1c0,0.4-0.2,1.2-1.7,1.2c-1.5,0-2.5-0.4-3.7-1.2l-1.1,2.9
	c2.4,1.3,4.5,1.5,5.5,1.5c4.9,0,5.5-2.8,5.5-3.8c0-1.3-0.8-2.6-2.5-3v-0.1c1.1-0.5,1.8-1.5,1.8-2.9c0-2.9-3-3.4-4.9-3.4
	c-1.7,0-3.7,0.5-5,1.2L166.6,9L166.6,9z M186.3,14c-0.2,1-1.1,1.5-2.3,1.5c-1.7,0-2.6-1.4-2.5-2.9h9c0.1-2.7-0.9-7.5-6.5-7.5
	c-4,0-6.5,2.7-6.5,6.5c0,4.3,2.9,6.6,6.6,6.6c1,0,5,0,6.4-4.2H186.3L186.3,14z M181.6,10.2c0.1-1.3,1-2.5,2.4-2.5
	c1.5,0,2.3,1.2,2.4,2.5H181.6L181.6,10.2z M192.6,17.7h4.3v-4.9h3.9v4.9h4.3V5.5h-4.3v4.3h-3.9V5.5h-4.3V17.7L192.6,17.7z"/>
<polygon fill-rule="evenodd" clip-rule="evenodd" fill="#FFED00" points="1.2,1.2 41.2,1.2 41.2,41.2 1.2,41.2 1.2,1.2 "/>
<path fill-rule="evenodd" clip-rule="evenodd" d="M0,0h42.4l0,42.4L0,42.4V0L0,0z M1.2,1.2h40.1l0,40l-40.1,0L1.2,1.2L1.2,1.2z"/>
<path fill-rule="evenodd" clip-rule="evenodd" d="M21.2,16.5l-3.4-3.4l1.6-1.7L13.2,5C12,3.9,8.6,2.5,5.5,5.5
	c-3,2.9-3.2,6.5-3.2,7.5l1.6-1.7l6.3,6.4l1.6-1.7l0-4.5l1.8,1.9l0,5.2l2.6,2.6L3.7,33.7l4.9,4.9l12.5-12.5l12.5,12.5l4.9-4.9
	L26.2,21.3l2.6-2.6l0-5.2l1.8-1.9l0,4.5l1.6,1.7l6.3-6.4l1.6,1.7c0-1.1-0.2-4.6-3.2-7.5c-3.1-3-6.5-1.6-7.7-0.5L23,11.4l1.6,1.7
	L21.2,16.5L21.2,16.5z"/>
<path fill="#FFFFFF" d="M92.6,25.2h-4.5l-2.8,17.1h4.6l1.2-7.3h6.2l-1.2,7.3h4.5l2.8-17.1h-4.5l-1,6.4h-6.2L92.6,25.2L92.6,25.2z
	 M110.9,25.2h-4.7l-2.8,17.1l4.7,0l1.2-7.4h0l4.8,7.4l6.1,0l-6.3-9l8.5-8.1h-5.8l-6.8,7.1l-0.1,0L110.9,25.2L110.9,25.2z M73.4,35.9
	l2.9-5.5l1.1,5.5H73.4L73.4,35.9z M78.6,42.3h5.1l-4-17.1h-5l-9.8,17.1h5l1.7-2.9h6.4L78.6,42.3L78.6,42.3z M50,42.3l6.9,0
	c1.8,0,4.5-0.1,6.4-2c0.8-0.8,1.2-2,1.4-3.2c0.3-1.6-0.3-2.9-1.3-3.8C62,32.2,60,32,58.5,32h-2l0.5-3.4h7.1l0.5-3.4H53L50,42.3
	L50,42.3z M56,35.2h1.3c2.6,0,2.8,0.8,2.7,1.9c-0.2,1-0.7,1.7-3.4,1.7h-1.2L56,35.2L56,35.2z"/>
</svg>
