<?xml version="1.0" encoding="utf-8"?>
<!-- Generator: Adobe Illustrator 18.1.1, SVG Export Plug-In . SVG Version: 6.00 Build 0)  -->
<svg version="1.1" id="Слой_1" xmlns="http://www.w3.org/2000/svg" xmlns:xlink="http://www.w3.org/1999/xlink" x="0px" y="0px"
	 viewBox="0 0 50 50" enable-background="new 0 0 50 50" xml:space="preserve">
<g>
	<defs>
		<rect id="SVGID_1_" width="50" height="50"/>
	</defs>
	<clipPath id="SVGID_2_">
		<use xlink:href="#SVGID_1_"  overflow="visible"/>
	</clipPath>
	<path clip-path="url(#SVGID_2_)" fill="none" stroke="#000000" stroke-width="2" stroke-miterlimit="10" d="M44,20c0-1.1-0.9-2-2-2
		c-1.1,0-2,0.9-2,2v15c0,1.1,0.9,2,2,2c1.1,0,2-0.9,2-2V20z"/>
	<path clip-path="url(#SVGID_2_)" fill="none" stroke="#000000" stroke-width="2" stroke-miterlimit="10" d="M28,47c1.1,0,2-0.9,2-2
		s-0.9-2-2-2h-5c-1.1,0-2,0.9-2,2s0.9,2,2,2H28z"/>
	<path clip-path="url(#SVGID_2_)" fill="none" stroke="#000000" stroke-width="2" stroke-miterlimit="10" d="M8,19
		C8,9.6,15.6,2,25,2s17,7.6,17,17"/>
	<path clip-path="url(#SVGID_2_)" fill="none" stroke="#000000" stroke-width="2" stroke-miterlimit="10" d="M44,20
		c2.8,0,5,3.4,5,7.5c0,4.1-2.2,7.5-5,7.5"/>
	<path clip-path="url(#SVGID_2_)" fill="none" stroke="#000000" stroke-width="2" stroke-miterlimit="10" d="M6,20c0-1.1,0.9-2,2-2
		s2,0.9,2,2v15c0,1.1-0.9,2-2,2s-2-0.9-2-2V20z"/>
	<path clip-path="url(#SVGID_2_)" fill="none" stroke="#000000" stroke-width="2" stroke-miterlimit="10" d="M6,20
		c-2.8,0-5,3.4-5,7.5C1,31.6,3.2,35,6,35"/>
	<path clip-path="url(#SVGID_2_)" fill="none" stroke="#000000" stroke-width="2" stroke-miterlimit="10" d="M42,37c0,5-3,8-8,8h-4"
		/>
</g>
</svg>
